# Blender v3.1.2 OBJ File: ''
# www.blender.org
mtllib cube.mtl
o Cube
v 1.004428 0.996054 -0.993679
v 1.009917 -1.003934 -0.989210
v 1.008188 1.000533 1.006313
v 1.013678 -0.999455 1.010782
v -0.995561 0.990573 -0.989906
v -0.990072 -1.009415 -0.985437
v -0.991800 0.995052 1.010085
v -0.986311 -1.004936 1.014554
vt 0.625000 0.500000
vt 0.875000 0.500000
vt 0.875000 0.750000
vt 0.625000 0.750000
vt 0.375000 0.750000
vt 0.625000 1.000000
vt 0.375000 1.000000
vt 0.375000 0.000000
vt 0.625000 0.000000
vt 0.625000 0.250000
vt 0.375000 0.250000
vt 0.125000 0.500000
vt 0.375000 0.500000
vt 0.125000 0.750000
vn -0.0027 1.0000 -0.0022
vn 0.0019 0.0022 1.0000
vn -1.0000 -0.0027 0.0019
vn 0.0027 -1.0000 0.0022
vn 1.0000 0.0027 -0.0019
vn -0.0019 -0.0022 -1.0000
usemtl Material
s off
f 1/1/1 5/2/1 7/3/1 3/4/1
f 4/5/2 3/4/2 7/6/2 8/7/2
f 8/8/3 7/9/3 5/10/3 6/11/3
f 6/12/4 2/13/4 4/5/4 8/14/4
f 2/13/5 1/1/5 3/4/5 4/5/5
f 6/11/6 5/10/6 1/1/6 2/13/6
